<?xml version="1.0" encoding="UTF-8" standalone="no"?>
<!-- Created with Inkscape (http://www.inkscape.org/) -->

<svg
   width="210mm"
   height="210mm"
   viewBox="0 0 210 210"
   version="1.1"
   id="svg1"
   inkscape:version="1.4.3 (0d15f75042, 2025-12-25)"
   sodipodi:docname="logotipo.svg"
   inkscape:export-filename="logotipo.png"
   inkscape:export-xdpi="96"
   inkscape:export-ydpi="96"
   xmlns:inkscape="http://www.inkscape.org/namespaces/inkscape"
   xmlns:sodipodi="http://sodipodi.sourceforge.net/DTD/sodipodi-0.dtd"
   xmlns="http://www.w3.org/2000/svg"
   xmlns:svg="http://www.w3.org/2000/svg">
  <sodipodi:namedview
     id="namedview1"
     pagecolor="#ffffff"
     bordercolor="#000000"
     borderopacity="0.25"
     inkscape:showpageshadow="2"
     inkscape:pageopacity="0.0"
     inkscape:pagecheckerboard="0"
     inkscape:deskcolor="#d1d1d1"
     inkscape:document-units="mm"
     showguides="false"
     inkscape:lockguides="false"
     showgrid="false"
     inkscape:zoom="1.2543867"
     inkscape:cx="531.73397"
     inkscape:cy="448.82492"
     inkscape:window-width="1366"
     inkscape:window-height="717"
     inkscape:window-x="0"
     inkscape:window-y="27"
     inkscape:window-maximized="1"
     inkscape:current-layer="text1">
    <inkscape:grid
       id="grid16"
       units="mm"
       originx="0"
       originy="0"
       spacingx="0.99999998"
       spacingy="1"
       empcolor="#0099e5"
       empopacity="0.30196078"
       color="#0099e5"
       opacity="0.14901961"
       empspacing="5"
       enabled="true"
       visible="false" />
    <sodipodi:guide
       position="-103.98448,-50.50918"
       orientation="1,0"
       id="guide16"
       inkscape:locked="false" />
    <sodipodi:guide
       position="-103.98448,-50.509179"
       orientation="1,0"
       id="guide17"
       inkscape:locked="false" />
  </sodipodi:namedview>
  <defs
     id="defs1" />
  <g
     inkscape:label="Capa 1"
     inkscape:groupmode="layer"
     id="layer1">
    <g
       id="g16"
       transform="matrix(1.9826983,0,0,1.9826983,-106.69691,-163.23243)">
      <g
         id="text1"
         style="font-size:3.175px;line-height:0.8;text-align:center;letter-spacing:-1.00542px;word-spacing:0px;text-anchor:middle;fill:#f6e7c8;stroke-width:0.264583"
         aria-label="Jeanca&#10;designs">
        <path
           style="font-weight:600;font-size:25.4px;font-family:'All Round Gothic';-inkscape-font-specification:'All Round Gothic, Semi-Bold'"
           d="m 71.650317,130.91774 c 4.089399,0 6.349999,-2.4384 6.349999,-6.223 v -10.7188 h -3.2512 v 10.7188 c 0,2.032 -1.016,3.2258 -3.073399,3.2258 -2.1082,0 -3.1242,-1.1938 -3.1242,-3.2258 v -0.127 h -3.175 v 0.127 c 0,3.7846 2.2606,6.223 6.2738,6.223 z m 14.158372,0 c 2.9718,0 5.2578,-1.5494 6.1976,-3.937 h -3.2258 c -0.635,0.8128 -1.6256,1.1938 -2.9718,1.1938 -1.778,0 -3.175,-0.9652 -3.5814,-2.794 h 10.287 v -1.0668 c 0,-3.81 -2.7432,-6.604 -6.7056,-6.604 -3.9624,0 -6.7564,2.794 -6.7564,6.604 0,3.81 2.794,6.604 6.7564,6.604 z m -3.5052,-7.9502 c 0.4826,-1.651 1.8034,-2.5146 3.5052,-2.5146 1.651,0 3.0226,0.8382 3.5052,2.5146 z m 16.926964,7.9502 c 1.981197,0 3.682997,-0.9398 4.444997,-2.794 v 2.4638 h 2.7686 v -6.1722 c 0,-4.0386 -2.7432,-6.7056 -6.680197,-6.7056 -3.9878,0 -6.7818,2.7432 -6.7818,6.731 0,4.2926 3.2004,6.477 6.2484,6.477 z m 0.508,-2.8194 c -2.2098,0 -3.7084,-1.5748 -3.7084,-3.7846 0,-2.2098 1.4986,-3.7846 3.7084,-3.7846 2.209797,0 3.682997,1.5748 3.682997,3.7846 0,2.2098 -1.4732,3.7846 -3.682997,3.7846 z m 8.189377,2.4892 h 3.0226 v -6.5278 c 0,-2.3876 1.27,-3.5306 3.175,-3.5306 1.905,0 3.175,1.143 3.175,3.5306 v 6.5278 h 3.0226 v -6.5278 c 0,-4.2164 -2.4892,-6.35 -6.1976,-6.35 -3.7084,0 -6.1976,2.159 -6.1976,6.35 z m 20.12739,0.3302 c 3.4036,0 5.8928,-2.0574 6.5024,-5.0292 h -3.048 c -0.5334,1.3462 -1.8034,2.2098 -3.4544,2.2098 -2.2098,0 -3.7084,-1.5748 -3.7084,-3.7846 0,-2.2098 1.4986,-3.7846 3.7084,-3.7846 1.651,0 2.921,0.8636 3.4544,2.2098 h 3.048 c -0.6096,-2.9718 -3.0988,-5.0292 -6.5024,-5.0292 -3.9624,0 -6.7564,2.794 -6.7564,6.604 0,3.81 2.794,6.604 6.7564,6.604 z m 13.21858,0 c 1.9812,0 3.683,-0.9398 4.445,-2.794 v 2.4638 h 2.7686 v -6.1722 c 0,-4.0386 -2.7432,-6.7056 -6.6802,-6.7056 -3.9878,0 -6.7818,2.7432 -6.7818,6.731 0,4.2926 3.2004,6.477 6.2484,6.477 z m 0.508,-2.8194 c -2.2098,0 -3.7084,-1.5748 -3.7084,-3.7846 0,-2.2098 1.4986,-3.7846 3.7084,-3.7846 2.2098,0 3.683,1.5748 3.683,3.7846 0,2.2098 -1.4732,3.7846 -3.683,3.7846 z"
           id="path1" />
        <path
           style="font-weight:600;font-size:25.4px;font-family:'All Round Gothic';-inkscape-font-specification:'All Round Gothic, Semi-Bold'"
           d="m 71.713809,151.23774 c 3.937,0 6.6802,-2.6416 6.6802,-6.7056 v -11.6586 h -3.0226 v 7.3152 c -0.889,-1.397 -2.3876,-2.159 -4.191,-2.159 -3.048,0 -6.2484,2.1844 -6.2484,6.477 0,3.9878 2.794,6.731 6.7818,6.731 z m -0.0254,-2.8194 c -2.2098,0 -3.7084,-1.5748 -3.7084,-3.7846 0,-2.2098 1.4986,-3.7846 3.7084,-3.7846 2.2098,0 3.683,1.5748 3.683,3.7846 0,2.2098 -1.4732,3.7846 -3.683,3.7846 z m 14.437775,2.8194 c 2.9718,0 5.2578,-1.5494 6.1976,-3.937 h -3.2258 c -0.635,0.8128 -1.6256,1.1938 -2.9718,1.1938 -1.778,0 -3.175,-0.9652 -3.5814,-2.794 h 10.287 v -1.0668 c 0,-3.81 -2.7432,-6.604 -6.7056,-6.604 -3.9624,0 -6.7564,2.794 -6.7564,6.604 0,3.81 2.794,6.604 6.7564,6.604 z m -3.5052,-7.9502 c 0.4826,-1.651 1.8034,-2.5146 3.5052,-2.5146 1.651,0 3.0226,0.8382 3.5052,2.5146 z m 15.987163,7.9502 c 3.200403,0 5.257803,-1.6764 5.257803,-4.2164 0,-3.1242 -3.0734,-3.4544 -4.749803,-3.683 -1.3462,-0.1778 -2.4892,-0.3302 -2.4892,-1.2954 0,-0.7366 0.6604,-1.3716 1.9812,-1.3716 1.1938,0 1.905003,0.5334 1.981203,1.2954 h 2.9972 c -0.0762,-2.2098 -1.9558,-3.937 -5.029203,-3.937 -3.0226,0 -4.978399,1.6764 -4.978399,4.2418 0,3.0734 2.844799,3.4036 4.775199,3.6576 1.3462,0.1778 2.463803,0.3048 2.463803,1.27 0,0.762 -0.6604,1.397 -2.209803,1.397 -1.4732,0 -2.2098,-0.5588 -2.2352,-1.397 h -3.047999 c 0.0762,2.3368 2.082799,4.0386 5.283199,4.0386 z m 8.214793,-14.5034 c 1.1684,0 2.0066,-0.8382 2.0066,-2.0066 0,-1.1684 -0.8382,-2.032 -2.0066,-2.032 -1.1684,0 -2.0066,0.8636 -2.0066,2.032 0,1.1684 0.8382,2.0066 2.0066,2.0066 z m -1.524,14.1732 h 3.0226 v -12.5476 h -3.0226 z m 11.23736,5.6896 c 3.683,0 6.6548,-1.8796 6.6548,-6.6802 v -5.1816 c 0,-4.064 -2.7432,-6.7056 -6.7056,-6.7056 -3.9624,0 -6.7564,2.794 -6.7564,6.604 0,4.445 3.2004,6.4516 6.1976,6.4516 1.8796,0 3.3782,-0.762 4.2418,-2.159 v 1.0922 c 0,2.921 -1.397,3.9624 -3.6322,3.9624 -1.6002,0 -2.8194,-0.5334 -3.3274,-1.7018 h -3.048 c 0.7874,2.9718 3.2512,4.318 6.3754,4.318 z m -0.0508,-8.3312 c -2.2098,0 -3.7084,-1.4224 -3.7084,-3.6322 0,-2.2098 1.4986,-3.7846 3.7084,-3.7846 2.2098,0 3.683,1.5748 3.683,3.7846 0,2.2098 -1.4732,3.6322 -3.683,3.6322 z m 8.18938,2.6416 h 3.0226 v -6.5278 c 0,-2.3876 1.27,-3.5306 3.175,-3.5306 1.905,0 3.175,1.143 3.175,3.5306 v 6.5278 h 3.0226 v -6.5278 c 0,-4.2164 -2.4892,-6.35 -6.1976,-6.35 -3.7084,0 -6.1976,2.159 -6.1976,6.35 z m 18.67959,0.3302 c 3.2004,0 5.2578,-1.6764 5.2578,-4.2164 0,-3.1242 -3.0734,-3.4544 -4.7498,-3.683 -1.3462,-0.1778 -2.4892,-0.3302 -2.4892,-1.2954 0,-0.7366 0.6604,-1.3716 1.9812,-1.3716 1.1938,0 1.905,0.5334 1.9812,1.2954 h 2.9972 c -0.0762,-2.2098 -1.9558,-3.937 -5.0292,-3.937 -3.0226,0 -4.9784,1.6764 -4.9784,4.2418 0,3.0734 2.8448,3.4036 4.7752,3.6576 1.3462,0.1778 2.4638,0.3048 2.4638,1.27 0,0.762 -0.6604,1.397 -2.2098,1.397 -1.4732,0 -2.2098,-0.5588 -2.2352,-1.397 h -3.048 c 0.0762,2.3368 2.0828,4.0386 5.2832,4.0386 z"
           id="path8" />
      </g>
      <path
         style="fill:#f6e7c8;stroke-width:1.09195;fill-opacity:1"
         d="m 366.08836,481.47644 c -9.01875,-4.89352 -7.836,-19.95498 1.88602,-24.0171 4.80788,-2.00887 6.4719,-1.9769 11.08667,0.21295 4.69155,2.22629 6.94159,6.44367 6.94159,13.01107 0,4.31811 -0.55506,5.63222 -3.71262,8.78979 -3.10788,3.10788 -4.48632,3.70549 -8.46257,3.66889 -2.61248,-0.024 -6.09507,-0.77356 -7.73909,-1.6656 z"
         id="path2"
         transform="scale(0.26458333)" />
      <path
         style="fill:#f6e7c8;stroke-width:1.09195;fill-opacity:1"
         d="m 364.07973,478.90197 c -2.49651,-2.49651 -3.19183,-4.17345 -3.19183,-7.69784 0,-11.05211 9.79363,-17.59367 18.57452,-12.40667 3.89888,2.30312 5.44827,5.70613 5.44827,11.9663 0,4.01112 -0.60351,5.54989 -3.19184,8.13821 -4.62565,4.62566 -13.01346,4.62566 -17.63912,0 z"
         id="path3"
         transform="scale(0.26458333)" />
      <path
         style="fill:#f6e7c8;stroke-width:1.09195;fill-opacity:1"
         d="m 364.07973,478.90197 c -2.49651,-2.49651 -3.19183,-4.17345 -3.19183,-7.69784 0,-11.05211 9.79363,-17.59367 18.57452,-12.40667 3.89888,2.30312 5.44827,5.70613 5.44827,11.9663 0,4.01112 -0.60351,5.54989 -3.19184,8.13821 -4.62565,4.62566 -13.01346,4.62566 -17.63912,0 z"
         id="path4"
         transform="scale(0.26458333)" />
      <path
         style="fill:#f6e7c8;stroke-width:1.09195;fill-opacity:1"
         d="m 364.07973,478.90197 c -2.49651,-2.49651 -3.19183,-4.17345 -3.19183,-7.69784 0,-11.05211 9.79363,-17.59367 18.57452,-12.40667 3.89888,2.30312 5.44827,5.70613 5.44827,11.9663 0,4.01112 -0.60351,5.54989 -3.19184,8.13821 -4.62565,4.62566 -13.01346,4.62566 -17.63912,0 z"
         id="path5"
         transform="scale(0.26458333)" />
      <path
         style="fill:#f6e7c8;stroke-width:0.364575;fill-opacity:1"
         d="m 114.5068,148.14143 c -2.05027,-1.02705 -2.81723,-3.65937 -1.65052,-5.66482 0.85764,-1.47417 2.05728,-2.06611 4.1872,-2.06611 1.62938,0 2.06505,0.15906 3.20085,1.16865 1.15042,1.02257 1.31476,1.38707 1.31476,2.91618 0,1.42977 -0.19755,1.94408 -1.08636,2.82829 -0.88267,0.87808 -1.44462,1.1058 -2.99688,1.2144 -1.25234,0.0876 -2.27517,-0.049 -2.96905,-0.39659 z"
         id="path6" />
      <path
         style="fill:#f6e7c8;stroke-width:0.414611;fill-opacity:1"
         d="m 95.543974,127.53621 c -1.063067,-0.84524 -1.35915,-1.413 -1.35915,-2.60626 0,-3.74193 4.170335,-5.95671 7.909406,-4.20053 1.66025,0.77975 2.32,1.93192 2.32,4.05144 0,1.35803 -0.25697,1.87903 -1.35915,2.75535 -1.9697,1.56612 -5.541402,1.56612 -7.511106,0 z"
         id="path7" />
      <path
         style="font-weight:600;font-size:8.46667px;line-height:0.8;font-family:Sans;-inkscape-font-specification:'Sans, Semi-Bold';fill:#820ad1;stroke-width:0.285175"
         d="m 103.12477,121.13732 -3.985291,1.37252 3.985291,1.36426 v 1.03353 l -5.29994,-1.91409 v -0.97566 l 5.29994,-1.91409 z"
         id="text7"
         transform="scale(0.98631264,1.0138773)"
         aria-label="&lt;" />
      <path
         style="font-weight:600;font-size:7.76111px;line-height:0.8;font-family:Sans;-inkscape-font-specification:'Sans, Semi-Bold';fill:#820ad1;stroke-width:0.264583"
         d="m 114.15352,141.14118 h 0.84129 l -1.99712,6.3779 h -0.8375 z m 1.66363,1.97059 v -0.9474 l 4.85828,1.75459 v 0.89434 l -4.85828,1.75459 v -0.9474 l 3.65697,-1.25057 z"
         id="text7-3"
         aria-label="/&gt;" />
    </g>
  </g>
  <g
     inkscape:groupmode="layer"
     id="layer2"
     inkscape:label="Capa 2" />
</svg>
